<svg xmlns="http://www.w3.org/2000/svg" version="1.1" xmlns:xlink="http://www.w3.org/1999/xlink" xmlns:svgjs="http://svgjs.dev/svgjs" width="1440" height="560" preserveAspectRatio="none" viewBox="0 0 1440 560">
    <g mask="url(&quot;#SvgjsMask1392&quot;)" fill="none">
        <rect width="1440" height="560" x="0" y="0" fill="url(&quot;#SvgjsLinearGradient1393&quot;)"></rect>
        <path d="M 0,224 C 57.6,197 172.8,87.6 288,89 C 403.2,90.4 460.8,226.6 576,231 C 691.2,235.4 748.8,104.8 864,111 C 979.2,117.2 1036.8,277.6 1152,262 C 1267.2,246.4 1382.4,78.8 1440,33L1440 560L0 560z" fill="rgba(91, 56, 230, 1)"></path>
        <path d="M 0,303 C 96,332.6 288,440.2 480,451 C 672,461.8 768,349.4 960,357 C 1152,364.6 1344,462.6 1440,489L1440 560L0 560z" fill="rgba(49, 50, 216, 1)"></path>
    </g>
    <defs>
        <mask id="SvgjsMask1392">
            <rect width="1440" height="560" fill="#ffffff"></rect>
        </mask>
        <linearGradient x1="15.28%" y1="-39.29%" x2="84.72%" y2="139.29%" gradientUnits="userSpaceOnUse" id="SvgjsLinearGradient1393">
            <stop stop-color="#0e2a47" offset="0"></stop>
            <stop stop-color="rgba(49, 50, 216, 1)" offset="1"></stop>
        </linearGradient>
    </defs>
</svg>